# AST/ASF file generated using VICON BodyLanguage
# -----------------------------------------------
:version 1.10
:name VICON
:units
  mass 1.0
  length 0.45
  angle deg
:documentation
   .ast/.asf automatically generated from VICON data using
   VICON BodyBuilder and BodyLanguage model FoxedUp or BRILLIANT.MOD
:root
   order TX TY TZ RX RY RZ
   axis XYZ
   position 0 0 0  
   orientation 0 0 0 
:bonedata
  begin
     id 1 
     name lhipjoint
     direction 0.660183 -0.676772 0.325788 
     length 2.75133 
     axis 0 0 0  XYZ
  end
  begin
     id 2 
     name lfemur
     direction 0.34202 -0.939693 0  
     length 7.70317  
     axis 0 0 20  XYZ
    dof rx ry rz
    limits (-160.0 20.0)
           (-70.0 70.0)
           (-60.0 70.0)
  end
  begin
     id 3 
     name ltibia
     direction 0.342105 -0.939662 0   
     length 7.18701   
     axis 0 0 20   XYZ
    dof rx
    limits (-10.0 170.0)
  end
  begin
     id 4 
     name lfoot
     direction 0.14163 -0.389126 0.910232   
     length 2.41719   
     axis -90 7.62852e-016 20   XYZ
    dof rx rz
    limits (-45.0 90.0)
           (-70.0 20.0)
  end
  begin
     id 5 
     name ltoes
     direction 1.53533e-011 -4.21926e-011 1   
     length 1.18611   
     axis -90 7.62852e-016 20   XYZ
    dof rx
    limits (-90.0 20.0)
  end
  begin
     id 6 
     name rhipjoint
     direction -0.6658 -0.67229 0.323631   
     length 2.76968  
     axis 0 0 0  XYZ 
  end
  begin
     id 7 
     name rfemur
     direction -0.34202 -0.939693 0   
     length 7.92547   
     axis 0 0 -20   XYZ
    dof rx ry rz
    limits (-160.0 20.0)
           (-70.0 70.0)
           (-70.0 60.0)
  end
  begin
     id 8 
     name rtibia
     direction -0.342022 -0.939692 0   
     length 7.22641   
     axis 0 0 -20   XYZ
    dof rx
    limits (-10.0 170.0)
 end
 begin
     id 9 
     name rfoot
     direction -0.105675 -0.29034 0.951071   
     length 2.48149  
     axis -90 -7.62852e-016 -20   XYZ
    dof rx rz
    limits (-45.0 90.0)
           (-20.0 70.0)
  end
  begin
     id 10 
     name rtoes
     direction -1.5349e-011 -4.21859e-011 1   
     length 1.23343   
     axis -90 -7.62852e-016 -20   XYZ
    dof rx
    limits (-90.0 20.0)
  end
  begin
     id 11 
     name lowerback
     direction 0.0104173 0.993624 -0.112266   
     length 2.00527   
     axis 0 0 0   XYZ
    dof rx ry rz
    limits (-20.0 45.0)
           (-30.0 30.0)
           (-30.0 30.0)
  end
  begin
     id 12 
     name upperback
     direction 0.00733149 0.999856 -0.0152913   
     length 2.01385   
     axis 0 0 0   XYZ
    dof rx ry rz
    limits (-20.0 45.0)
           (-30.0 30.0)
           (-30.0 30.0)
  end
  begin
     id 13 
     name thorax
     direction 0.0026304 0.999318 0.036841   
     length 2.03734   
     axis 0 0 0   XYZ
    dof rx ry rz
    limits (-20.0 45.0)
           (-30.0 30.0)
           (-30.0 30.0)
  end
  begin
     id 14 
     name lowerneck
     direction 0.0293154 0.998757 0.0403082   
     length 1.65303   
     axis 0 0 0   XYZ
    dof rx ry rz
    limits (-20.0 45.0)
           (-30.0 30.0)
           (-30.0 30.0)
  end
  begin
     id 15 
     name upperneck
     direction -0.0376619 0.998184 -0.0470083   
     length 1.60926   
     axis 0 0 0   XYZ
    dof rx ry rz
    limits (-20.0 45.0)
           (-30.0 30.0)
           (-30.0 30.0)
  end
  begin
     id 16
     name head
     direction -0.0170133 0.999635 -0.0209778  
     length 1.73625  
     axis 0 0 0   XYZ
    dof rx ry rz
    limits (-20.0 45.0)
           (-30.0 30.0)
           (-30.0 30.0)
  end
  begin
     id 17 
     name lclavicle
     direction 0.919857 0.39181 -0.0186333  
     length 3.75313  
     axis 0 0 0   XYZ
    dof ry rz
    limits (-20.0 10.0)
           (0.0 20.0)
  end
  begin
     id 18 
     name lhumerus
     direction 1 -4.48988e-011 1.44029e-027   
     length 5.49313   
     axis 180 -30 -90   XYZ
    dof rx ry rz
    limits (-60.0 90.0)
           (-90.0 90.0)
           (-90.0 90.0)
  end
  begin
     id 19
     name lradius
     direction 1 -4.48924e-011 7.46281e-027   
     length 3.29037   
     axis 180 -30 -90   XYZ
    dof rx
    limits (-10.0 170.0)
  end
  begin
     id 20
     name lwrist
     direction 1 -4.48955e-011 2.19879e-026   
     length 1.64519   
     axis -1.34358e-014 90 90   XYZ
    dof ry
    limits (-180.0 0.0)
 end
  begin
     id 21 
     name lhand
     direction 1 -4.48978e-011 4.39747e-026   
     length 0.729656   
     axis -2.80598e-014 90 90   XYZ
    dof rx rz
    limits (-90.0 90.0)
           (-45.0 45.0)
  end
  begin
     id 22 
     name lfingers
     direction 1 -4.49071e-011 8.79411e-026   
     length 0.588268   
     axis -5.61193e-014 90 90   XYZ
    dof rx
    limits (0.0 90.0)
  end
  begin
     id 23
     name lthumb
     direction 0.707107 -6.34817e-011 0.707107   
     length 0.844638   
     axis -90 45 -9.86923e-015   XYZ
    dof rx rz
    limits (-45.0 45.0)
           (-45.0 45.0)
  end
  begin
     id 24 
     name rclavicle
     direction -0.919898 0.388279 0.0550233   
     length 3.7171  
     axis 0 0 0   XYZ 
    dof ry rz
    limits (-10.0 20.0)
           (-20.0 0.0)
  end
  begin
     id 25 
     name rhumerus
     direction -1 -4.48968e-011 9.98372e-028  
     length 5.23684   
     axis 180 30 90   XYZ
    dof rx ry rz
    limits (-90.0 60.0)
           (-90.0 90.0)
           (-90.0 90.0)
  end
  begin
     id 26 
     name rradius
     direction -1 -4.48956e-011 1.01023e-026   
     length 3.38251   
     axis 180 30 90   XYZ
    dof rx
    limits (-10.0 170.0)
  end
  begin
     id 27 
     name rwrist
     direction -1 -4.4892e-011 2.19886e-026   
     length 1.69126   
     axis -1.34358e-014 -90 -90   XYZ
    dof ry
    limits (-180.0 0.0)
  end
  begin
     id 28
     name rhand
     direction -1 -4.49024e-011 4.39727e-026   
     length 0.691454   
     axis -2.80598e-014 -90 -90   XYZ
    dof rx rz
    limits (-90.0 90.0)
           (-45.0 45.0)
  end
  begin
     id 29
     name rfingers
     direction -1 -4.49097e-011 8.79388e-026   
     length 0.557468   
     axis -5.61193e-014 -90 -90   XYZ
    dof rx
    limits (0.0 90.0)
  end
  begin
     id 30
     name rthumb
     direction -0.707107 -6.34938e-011 0.707107   
     length 0.800416   
     axis -90 -45 9.86923e-015   XYZ
    dof rx rz
    limits (-45.0 45.0)
           (-45.0 45.0)
  end
:hierarchy
  begin
    root lhipjoint rhipjoint lowerback
    lhipjoint lfemur
    lfemur ltibia
    ltibia lfoot
    lfoot ltoes
    rhipjoint rfemur
    rfemur rtibia
    rtibia rfoot
    rfoot rtoes
    lowerback upperback
    upperback thorax
    thorax lowerneck lclavicle rclavicle
    lowerneck upperneck
    upperneck head
    lclavicle lhumerus
    lhumerus lradius
    lradius lwrist
    lwrist lhand lthumb
    lhand lfingers
    rclavicle rhumerus
    rhumerus rradius
    rradius rwrist
    rwrist rhand rthumb
    rhand rfingers
  end

#!OML:ASF H:\BabyWalks\Project 1\Capture day 1\Session 1\baby.ASF
:FULLY-SPECIFIED
:DEGREES
1
root -33.496 17.7097 -1.4935 -58.3388 85.4053 -53.4741
lowerback 9.79711 -1.40883 0.638508
upperback 2.64264 -1.60969 2.75614
thorax -2.68165 -0.75844 2.68792
lowerneck -7.94059 2.2622 0.457909
upperneck 2.77057 3.10223 -2.4136
head 2.29512 1.48145 -0.711134
rclavicle -1.12313e-014 1.98785e-015
rhumerus -38.2518 10.6502 -82.0973
rradius 41.6325
rwrist 8.27159
rhand -3.84177 -13.763
rfingers 7.12502
rthumb 21.9059 -42.5429
lclavicle -1.12313e-014 1.98785e-015
lhumerus -40.9629 4.9333 81.7103
lradius 42.6156
lwrist -2.48132
lhand 2.18374 11.1513
lfingers 7.12502
lthumb 27.6803 39.1344
rfemur 5.24044 7.94467 23.2369
rtibia 14.6408
rfoot -16.4626 -20.2801
rtoes 0.150665
lfemur 1.30443 -9.11387 -12.6542
ltibia 21.5959
lfoot -18.16 17.4039
ltoes -0.871701
2
root -33.4963 17.7091 -1.49215 -58.8954 85.3757 -54.0358
lowerback 9.77645 -1.40712 0.667578
upperback 2.65357 -1.60346 2.78544
thorax -2.65913 -0.755232 2.70045
lowerneck -7.91476 2.26419 0.457762
upperneck 2.74868 3.10556 -2.43396
head 2.28358 1.48291 -0.71777
rclavicle -3.15819e-014 1.31198e-014
rhumerus -38.2585 10.666 -82.0787
rradius 41.6596
rwrist 8.25003
rhand -3.85228 -13.7972
rfingers 7.12502
rthumb 21.8958 -42.5782
lclavicle -3.15819e-014 1.31198e-014
lhumerus -40.954 4.95194 81.7206
lradius 42.619
lwrist -2.505
lhand 2.4108 10.3885
lfingers 7.12502
lthumb 27.8974 38.3366
rfemur 5.26027 7.86504 23.2903
rtibia 14.5992
rfoot -16.3353 -20.2484
rtoes -0.2085
lfemur 1.27951 -9.13256 -12.5919
ltibia 21.6265
lfoot -18.178 17.3935
ltoes -0.861625
3
root -33.4949 17.7102 -1.49133 -59.0106 85.4032 -54.1419
lowerback 9.76123 -1.40649 0.654236
upperback 2.66285 -1.60469 2.77988
thorax -2.64085 -0.755929 2.70167
lowerneck -7.89881 2.26578 0.478088
upperneck 2.74764 3.10665 -2.45522
head 2.2812 1.48317 -0.728182
rclavicle 1.27719e-014 2.38542e-015
rhumerus -38.255 10.6631 -82.0788
rradius 41.6525
rwrist 8.263
rhand -3.86592 -13.7887
rfingers 7.12502
rthumb 21.8827 -42.5712
lclavicle 1.27719e-014 2.38542e-015
lhumerus -40.9515 4.96342 81.7168
lradius 42.6224
lwrist -2.50518
lhand 2.20287 11.1299
lfingers 7.12502
lthumb 27.6986 39.1101
rfemur 5.25993 7.96729 23.2838
rtibia 14.6383
rfoot -16.3549 -20.3075
rtoes -0.174421
lfemur 1.30331 -9.10288 -12.6028
ltibia 21.5894
lfoot -18.1564 17.3539
ltoes -0.885514
4
root -33.494 17.7093 -1.4899 -59.4085 85.4516 -54.5431
lowerback 9.75083 -1.41583 0.630502
upperback 2.66354 -1.61996 2.77647
thorax -2.63317 -0.76358 2.71296
lowerneck -7.8704 2.27216 0.44435
upperneck 2.72541 3.11631 -2.42201
head 2.26729 1.48897 -0.711642
rclavicle 2.48481e-014 5.96354e-015
rhumerus -38.2787 10.6688 -82.0761
rradius 41.6816
rwrist 8.24092
rhand -3.83793 -13.7987
rfingers 7.12502
rthumb 21.9096 -42.5781
lclavicle 2.48481e-014 5.96354e-015
lhumerus -40.9501 4.95829 81.7173
lradius 42.6096
lwrist -2.49304
lhand 2.16195 11.087
lfingers 7.12502
lthumb 27.6595 39.0734
rfemur 5.2625 7.93708 23.2716
rtibia 14.6773
rfoot -16.3905 -20.3459
rtoes -0.121029
lfemur 1.30915 -9.14843 -12.6245
ltibia 21.5506
lfoot -18.1245 17.3444
ltoes -0.848718
5
root -33.4934 17.713 -1.4888 -59.6508 85.4622 -54.7898
lowerback 9.76547 -1.41178 0.634952
upperback 2.65668 -1.6137 2.77593
thorax -2.64877 -0.760377 2.70975
lowerneck -7.87923 2.2659 0.462152
upperneck 2.75087 3.10752 -2.43875
head 2.278 1.48398 -0.720303
rclavicle 3.2551e-015 8.34896e-015
rhumerus -38.1902 10.5624 -82.0431
rradius 41.5265
rwrist 8.34679
rhand -3.85063 -13.7513
rfingers 7.12502
rthumb 21.8974 -42.5321
lclavicle 3.2551e-015 8.34896e-015
lhumerus -40.9599 4.94727 81.7166
lradius 42.6201
lwrist -2.50942
lhand 2.22505 10.9137
lfingers 7.12502
lthumb 27.7198 38.8904
rfemur 5.19749 7.9567 23.2802
rtibia 14.7503
rfoot -16.3988 -20.3992
rtoes -0.401386
lfemur 1.33773 -9.15491 -12.6174
ltibia 21.4783
lfoot -18.1064 17.3251
ltoes -0.850181
6
root -33.4927 17.7143 -1.48761 -59.9384 85.4836 -55.0797
lowerback 9.76118 -1.41212 0.628501
upperback 2.65785 -1.61489 2.77597
thorax -2.64496 -0.760971 2.7134
lowerneck -7.86942 2.26565 0.464618
upperneck 2.75315 3.10712 -2.4425
head 2.27708 1.48374 -0.722032
rclavicle -1.39398e-014 3.1408e-014
rhumerus -38.156 10.5171 -82.0259
rradius 41.465
rwrist 8.38639
rhand -3.85267 -13.7288
rfingers 7.12502
rthumb 21.8954 -42.5099
lclavicle -1.39398e-014 3.1408e-014
lhumerus -40.9586 4.94344 81.7179
lradius 42.6207
lwrist -2.51301
lhand 2.22141 10.8994
lfingers 7.12502
lthumb 27.7163 38.8767
rfemur 5.16225 7.96781 23.2831
rtibia 14.8191
rfoot -16.4278 -20.4441
rtoes -0.534876
lfemur 1.36231 -9.16559 -12.6178
ltibia 21.4126
lfoot -18.079 17.3044
ltoes -0.827971
7
root -33.4919 17.7156 -1.48646 -60.2027 85.5076 -55.3462
lowerback 9.75766 -1.41273 0.620001
upperback 2.65876 -1.61675 2.77384
thorax -2.64182 -0.76191 2.71607
lowerneck -7.86 2.26555 0.46742
upperneck 2.75525 3.10685 -2.44511
head 2.27616 1.48359 -0.723447
rclavicle 1.12065e-014 -1.03368e-014
rhumerus -38.1193 10.4701 -82.0097
rradius 41.3979
rwrist 8.42796
rhand -3.85568 -13.7002
rfingers 7.12502
rthumb 21.8925 -42.4816
lclavicle 1.12065e-014 -1.03368e-014
lhumerus -40.9574 4.93729 81.7188
lradius 42.6219
lwrist -2.51327
lhand 2.21879 10.8837
lfingers 7.12502
lthumb 27.7138 38.8614
rfemur 5.12437 7.98033 23.282
rtibia 14.8941
rfoot -16.4714 -20.4917
rtoes -0.657283
lfemur 1.39136 -9.17743 -12.6225
ltibia 21.3375
lfoot -18.0469 17.2854
ltoes -0.802661
8
root -33.4912 17.7166 -1.48535 -60.4545 85.5299 -55.6009
lowerback 9.75323 -1.4132 0.612867
upperback 2.6598 -1.61831 2.77156
thorax -2.63809 -0.76271 2.71775
lowerneck -7.85078 2.26522 0.469438
upperneck 2.75766 3.10629 -2.44683
head 2.27534 1.48331 -0.724453
rclavicle 1.39398e-014 -3.57812e-014
rhumerus -38.0835 10.4254 -81.9951
rradius 41.3329
rwrist 8.46672
rhand -3.85832 -13.6728
rfingers 7.12502
rthumb 21.89 -42.4545
lclavicle 1.39398e-014 -3.57812e-014
lhumerus -40.9558 4.9301 81.72
lradius 42.624
lwrist -2.5122
lhand 2.22846 10.8285
lfingers 7.12502
lthumb 27.7231 38.8047
rfemur 5.09814 7.98206 23.2801
rtibia 14.946
rfoot -16.506 -20.5309
rtoes -0.779156
lfemur 1.40889 -9.19062 -12.6269
ltibia 21.2869
lfoot -18.0297 17.2696
ltoes -0.770218
9
root -33.4905 17.7174 -1.48435 -60.6811 85.5481 -55.8307
lowerback 9.74932 -1.41309 0.608671
upperback 2.66081 -1.61879 2.76949
thorax -2.63481 -0.762969 2.71787
lowerneck -7.8377 2.26369 0.4784
upperneck 2.7553 3.10377 -2.4567
head 2.27251 1.48198 -0.729397
rclavicle 1.32192e-014 -1.31198e-014
rhumerus -38.0493 10.3847 -81.9828
rradius 41.2713
rwrist 8.50084
rhand -3.86174 -13.6438
rfingers 7.12502
rthumb 21.8867 -42.4259
lclavicle 1.32192e-014 -1.31198e-014
lhumerus -40.9542 4.92192 81.7218
lradius 42.6269
lwrist -2.50864
lhand 2.24204 10.7717
lfingers 7.12502
lthumb 27.736 38.7458
rfemur 5.07838 7.98099 23.2791
rtibia 14.985
rfoot -16.5244 -20.5592
rtoes -0.886036
lfemur 1.42083 -9.20404 -12.6297
ltibia 21.2493
lfoot -18.0192 17.2584
ltoes -0.745728
